<mxfile host="app.diagrams.net" modified="2024-06-25T22:11:40.168Z" agent="Mozilla/5.0 (Windows NT 10.0; Win64; x64) AppleWebKit/537.36 (KHTML, like Gecko) Chrome/126.0.0.0 Safari/537.36" etag="xoLgwlnGeTEJP-CwWar1" version="24.6.3" type="google">
  <diagram name="Página-1" id="D4xfMR_tDfcY7prQFISW">
    <mxGraphModel grid="1" page="1" gridSize="10" guides="1" tooltips="1" connect="1" arrows="1" fold="1" pageScale="1" pageWidth="1169" pageHeight="827" math="0" shadow="0">
      <root>
        <mxCell id="0" />
        <mxCell id="1" parent="0" />
        <mxCell id="BfA_5P8bwOXLROu7K_P--1" value="&lt;h1 style=&quot;margin-top: 0px;&quot;&gt;&lt;font style=&quot;font-size: 20px;&quot;&gt;Realizar un depósito&lt;/font&gt;&lt;/h1&gt;&lt;p style=&quot;font-size: 11px;&quot;&gt;Diagrama de secuencia para solicitar un depósito bancario.&lt;/p&gt;" style="text;html=1;whiteSpace=wrap;overflow=hidden;rounded=0;fillColor=#eeeeee;strokeColor=#36393d;fontSize=11;" vertex="1" parent="1">
          <mxGeometry x="10" y="10" width="490" height="70" as="geometry" />
        </mxCell>
        <mxCell id="BfA_5P8bwOXLROu7K_P--43" value="" style="shape=umlLifeline;perimeter=lifelinePerimeter;whiteSpace=wrap;html=1;container=1;dropTarget=0;collapsible=0;recursiveResize=0;outlineConnect=0;portConstraint=eastwest;newEdgeStyle={&quot;curved&quot;:0,&quot;rounded&quot;:0};participant=umlActor;" vertex="1" parent="1">
          <mxGeometry x="100" y="130" width="20" height="640" as="geometry" />
        </mxCell>
        <mxCell id="BfA_5P8bwOXLROu7K_P--57" value="" style="html=1;points=[[0,0,0,0,5],[0,1,0,0,-5],[1,0,0,0,5],[1,1,0,0,-5]];perimeter=orthogonalPerimeter;outlineConnect=0;targetShapes=umlLifeline;portConstraint=eastwest;newEdgeStyle={&quot;curved&quot;:0,&quot;rounded&quot;:0};fillColor=#ffcc99;strokeColor=#36393d;" vertex="1" parent="BfA_5P8bwOXLROu7K_P--43">
          <mxGeometry x="5" y="70" width="10" height="30" as="geometry" />
        </mxCell>
        <mxCell id="bcULmBKe0mkSa0cwNDqA-21" value="" style="html=1;points=[[0,0,0,0,5],[0,1,0,0,-5],[1,0,0,0,5],[1,1,0,0,-5]];perimeter=orthogonalPerimeter;outlineConnect=0;targetShapes=umlLifeline;portConstraint=eastwest;newEdgeStyle={&quot;curved&quot;:0,&quot;rounded&quot;:0};fillColor=#ffcc99;strokeColor=#36393d;" vertex="1" parent="BfA_5P8bwOXLROu7K_P--43">
          <mxGeometry x="5" y="534" width="10" height="30" as="geometry" />
        </mxCell>
        <mxCell id="NwqncXRK5OJ0vS-3r9_5-2" value="" style="html=1;points=[[0,0,0,0,5],[0,1,0,0,-5],[1,0,0,0,5],[1,1,0,0,-5]];perimeter=orthogonalPerimeter;outlineConnect=0;targetShapes=umlLifeline;portConstraint=eastwest;newEdgeStyle={&quot;curved&quot;:0,&quot;rounded&quot;:0};fillColor=#ffcc99;strokeColor=#36393d;" vertex="1" parent="BfA_5P8bwOXLROu7K_P--43">
          <mxGeometry x="5" y="269" width="10" height="30" as="geometry" />
        </mxCell>
        <mxCell id="BfA_5P8bwOXLROu7K_P--44" value="Sistema&lt;br&gt;Bancario" style="shape=umlLifeline;perimeter=lifelinePerimeter;whiteSpace=wrap;html=1;container=1;dropTarget=0;collapsible=0;recursiveResize=0;outlineConnect=0;portConstraint=eastwest;newEdgeStyle={&quot;curved&quot;:0,&quot;rounded&quot;:0};" vertex="1" parent="1">
          <mxGeometry x="240" y="130" width="100" height="640" as="geometry" />
        </mxCell>
        <mxCell id="BfA_5P8bwOXLROu7K_P--56" value="" style="html=1;points=[[0,0,0,0,5],[0,1,0,0,-5],[1,0,0,0,5],[1,1,0,0,-5]];perimeter=orthogonalPerimeter;outlineConnect=0;targetShapes=umlLifeline;portConstraint=eastwest;newEdgeStyle={&quot;curved&quot;:0,&quot;rounded&quot;:0};fillColor=#cce5ff;strokeColor=#36393d;" vertex="1" parent="BfA_5P8bwOXLROu7K_P--44">
          <mxGeometry x="45" y="80" width="10" height="150" as="geometry" />
        </mxCell>
        <mxCell id="bcULmBKe0mkSa0cwNDqA-13" value="" style="html=1;points=[[0,0,0,0,5],[0,1,0,0,-5],[1,0,0,0,5],[1,1,0,0,-5]];perimeter=orthogonalPerimeter;outlineConnect=0;targetShapes=umlLifeline;portConstraint=eastwest;newEdgeStyle={&quot;curved&quot;:0,&quot;rounded&quot;:0};fillColor=#cce5ff;strokeColor=#36393d;" vertex="1" parent="BfA_5P8bwOXLROu7K_P--44">
          <mxGeometry x="45" y="340" width="10" height="150" as="geometry" />
        </mxCell>
        <mxCell id="bcULmBKe0mkSa0cwNDqA-20" value="" style="html=1;points=[[0,0,0,0,5],[0,1,0,0,-5],[1,0,0,0,5],[1,1,0,0,-5]];perimeter=orthogonalPerimeter;outlineConnect=0;targetShapes=umlLifeline;portConstraint=eastwest;newEdgeStyle={&quot;curved&quot;:0,&quot;rounded&quot;:0};fillColor=#cce5ff;strokeColor=#36393d;" vertex="1" parent="BfA_5P8bwOXLROu7K_P--44">
          <mxGeometry x="45" y="532" width="10" height="30" as="geometry" />
        </mxCell>
        <mxCell id="NwqncXRK5OJ0vS-3r9_5-1" value="" style="html=1;points=[[0,0,0,0,5],[0,1,0,0,-5],[1,0,0,0,5],[1,1,0,0,-5]];perimeter=orthogonalPerimeter;outlineConnect=0;targetShapes=umlLifeline;portConstraint=eastwest;newEdgeStyle={&quot;curved&quot;:0,&quot;rounded&quot;:0};fillColor=#cce5ff;strokeColor=#36393d;" vertex="1" parent="BfA_5P8bwOXLROu7K_P--44">
          <mxGeometry x="45" y="269" width="10" height="30" as="geometry" />
        </mxCell>
        <mxCell id="NwqncXRK5OJ0vS-3r9_5-15" value="" style="html=1;points=[[0,0,0,0,5],[0,1,0,0,-5],[1,0,0,0,5],[1,1,0,0,-5]];perimeter=orthogonalPerimeter;outlineConnect=0;targetShapes=umlLifeline;portConstraint=eastwest;newEdgeStyle={&quot;curved&quot;:0,&quot;rounded&quot;:0};fillColor=#cce5ff;strokeColor=#36393d;" vertex="1" parent="BfA_5P8bwOXLROu7K_P--44">
          <mxGeometry x="45" y="590" width="10" height="30" as="geometry" />
        </mxCell>
        <mxCell id="BfA_5P8bwOXLROu7K_P--45" value="Cliente" style="text;align=center;fontStyle=1;verticalAlign=middle;spacingLeft=3;spacingRight=3;strokeColor=none;rotatable=0;points=[[0,0.5],[1,0.5]];portConstraint=eastwest;html=1;" vertex="1" parent="1">
          <mxGeometry x="70" y="104" width="80" height="26" as="geometry" />
        </mxCell>
        <mxCell id="BfA_5P8bwOXLROu7K_P--48" value="" style="shape=umlLifeline;perimeter=lifelinePerimeter;whiteSpace=wrap;html=1;container=1;dropTarget=0;collapsible=0;recursiveResize=0;outlineConnect=0;portConstraint=eastwest;newEdgeStyle={&quot;curved&quot;:0,&quot;rounded&quot;:0};participant=umlEntity;" vertex="1" parent="1">
          <mxGeometry x="470" y="129" width="40" height="641" as="geometry" />
        </mxCell>
        <mxCell id="bcULmBKe0mkSa0cwNDqA-2" value="" style="html=1;points=[[0,0,0,0,5],[0,1,0,0,-5],[1,0,0,0,5],[1,1,0,0,-5]];perimeter=orthogonalPerimeter;outlineConnect=0;targetShapes=umlLifeline;portConstraint=eastwest;newEdgeStyle={&quot;curved&quot;:0,&quot;rounded&quot;:0};fillColor=#cdeb8b;strokeColor=#36393d;" vertex="1" parent="BfA_5P8bwOXLROu7K_P--48">
          <mxGeometry x="15" y="111" width="10" height="49" as="geometry" />
        </mxCell>
        <mxCell id="NwqncXRK5OJ0vS-3r9_5-9" value="" style="html=1;points=[[0,0,0,0,5],[0,1,0,0,-5],[1,0,0,0,5],[1,1,0,0,-5]];perimeter=orthogonalPerimeter;outlineConnect=0;targetShapes=umlLifeline;portConstraint=eastwest;newEdgeStyle={&quot;curved&quot;:0,&quot;rounded&quot;:0};fillColor=#cdeb8b;strokeColor=#36393d;" vertex="1" parent="BfA_5P8bwOXLROu7K_P--48">
          <mxGeometry x="15" y="381" width="10" height="69" as="geometry" />
        </mxCell>
        <mxCell id="BfA_5P8bwOXLROu7K_P--49" value="Base de Datos" style="text;align=center;fontStyle=1;verticalAlign=middle;spacingLeft=3;spacingRight=3;strokeColor=none;rotatable=0;points=[[0,0.5],[1,0.5]];portConstraint=eastwest;html=1;" vertex="1" parent="1">
          <mxGeometry x="445" y="104" width="90" height="26" as="geometry" />
        </mxCell>
        <mxCell id="BfA_5P8bwOXLROu7K_P--55" value="Solicitar Depósito&lt;br&gt;(monto, cuenta)" style="html=1;verticalAlign=bottom;endArrow=block;curved=0;rounded=0;" edge="1" parent="1">
          <mxGeometry width="80" relative="1" as="geometry">
            <mxPoint x="115" y="221" as="sourcePoint" />
            <mxPoint x="285" y="221" as="targetPoint" />
          </mxGeometry>
        </mxCell>
        <mxCell id="BfA_5P8bwOXLROu7K_P--58" value="Consultar cuenta" style="html=1;verticalAlign=bottom;endArrow=block;curved=0;rounded=0;" edge="1" parent="1">
          <mxGeometry width="80" relative="1" as="geometry">
            <mxPoint x="295" y="248" as="sourcePoint" />
            <mxPoint x="484.9999999999998" y="248" as="targetPoint" />
          </mxGeometry>
        </mxCell>
        <mxCell id="BfA_5P8bwOXLROu7K_P--80" value="Confirmación de&lt;br&gt;registro" style="html=1;verticalAlign=bottom;endArrow=block;curved=0;rounded=0;" edge="1" parent="1">
          <mxGeometry width="80" relative="1" as="geometry">
            <mxPoint x="494.9999999999998" y="566.5" as="sourcePoint" />
            <mxPoint x="624.9999999999998" y="566.5" as="targetPoint" />
          </mxGeometry>
        </mxCell>
        <mxCell id="BfA_5P8bwOXLROu7K_P--81" value="Registrar Transacción&lt;div&gt;(depósito)&lt;/div&gt;" style="html=1;verticalAlign=bottom;endArrow=block;curved=0;rounded=0;" edge="1" parent="1">
          <mxGeometry width="80" relative="1" as="geometry">
            <mxPoint x="624.9999999999998" y="527" as="sourcePoint" />
            <mxPoint x="494.9999999999998" y="527" as="targetPoint" />
          </mxGeometry>
        </mxCell>
        <mxCell id="BfA_5P8bwOXLROu7K_P--86" value="Error (&quot;Actualización fallida&quot;)" style="html=1;verticalAlign=bottom;endArrow=block;curved=0;rounded=0;" edge="1" parent="1">
          <mxGeometry width="80" relative="1" as="geometry">
            <mxPoint x="285" y="683.9999999999998" as="sourcePoint" />
            <mxPoint x="115" y="683.9999999999998" as="targetPoint" />
          </mxGeometry>
        </mxCell>
        <mxCell id="bcULmBKe0mkSa0cwNDqA-1" value="Cuenta Bancaria" style="shape=umlLifeline;perimeter=lifelinePerimeter;whiteSpace=wrap;html=1;container=1;dropTarget=0;collapsible=0;recursiveResize=0;outlineConnect=0;portConstraint=eastwest;newEdgeStyle={&quot;curved&quot;:0,&quot;rounded&quot;:0};" vertex="1" parent="1">
          <mxGeometry x="580" y="130" width="100" height="640" as="geometry" />
        </mxCell>
        <mxCell id="bcULmBKe0mkSa0cwNDqA-14" value="" style="html=1;points=[[0,0,0,0,5],[0,1,0,0,-5],[1,0,0,0,5],[1,1,0,0,-5]];perimeter=orthogonalPerimeter;outlineConnect=0;targetShapes=umlLifeline;portConstraint=eastwest;newEdgeStyle={&quot;curved&quot;:0,&quot;rounded&quot;:0};fillColor=#fff2cc;strokeColor=#000000;" vertex="1" parent="bcULmBKe0mkSa0cwNDqA-1">
          <mxGeometry x="45" y="172" width="10" height="58" as="geometry" />
        </mxCell>
        <mxCell id="NwqncXRK5OJ0vS-3r9_5-7" value="" style="html=1;points=[[0,0,0,0,5],[0,1,0,0,-5],[1,0,0,0,5],[1,1,0,0,-5]];perimeter=orthogonalPerimeter;outlineConnect=0;targetShapes=umlLifeline;portConstraint=eastwest;newEdgeStyle={&quot;curved&quot;:0,&quot;rounded&quot;:0};fillColor=#fff2cc;strokeColor=#000000;" vertex="1" parent="bcULmBKe0mkSa0cwNDqA-1">
          <mxGeometry x="45" y="340" width="10" height="150" as="geometry" />
        </mxCell>
        <mxCell id="bcULmBKe0mkSa0cwNDqA-4" value="Datos de la cuenta" style="html=1;verticalAlign=bottom;endArrow=block;curved=0;rounded=0;dashed=1;" edge="1" parent="1">
          <mxGeometry width="80" relative="1" as="geometry">
            <mxPoint x="484.9999999999998" y="277.9999999999999" as="sourcePoint" />
            <mxPoint x="295" y="278" as="targetPoint" />
          </mxGeometry>
        </mxCell>
        <mxCell id="bcULmBKe0mkSa0cwNDqA-5" value="Verificar Cuenta (datos)" style="html=1;verticalAlign=bottom;endArrow=block;curved=0;rounded=0;" edge="1" parent="1">
          <mxGeometry width="80" relative="1" as="geometry">
            <mxPoint x="295" y="314" as="sourcePoint" />
            <mxPoint x="624.9999999999998" y="314" as="targetPoint" />
          </mxGeometry>
        </mxCell>
        <mxCell id="bcULmBKe0mkSa0cwNDqA-6" value="Confirmar cuenta (estado)" style="html=1;verticalAlign=bottom;endArrow=block;curved=0;rounded=0;dashed=1;" edge="1" parent="1">
          <mxGeometry width="80" relative="1" as="geometry">
            <mxPoint x="624.9999999999998" y="351" as="sourcePoint" />
            <mxPoint x="295" y="351" as="targetPoint" />
          </mxGeometry>
        </mxCell>
        <mxCell id="bcULmBKe0mkSa0cwNDqA-7" value="&lt;b&gt;alt&lt;/b&gt;" style="shape=umlFrame;whiteSpace=wrap;html=1;pointerEvents=0;width=80;height=15;fillColor=#f8cecc;strokeColor=#b85450;" vertex="1" parent="1">
          <mxGeometry x="80" y="370" width="620" height="410" as="geometry" />
        </mxCell>
        <mxCell id="bcULmBKe0mkSa0cwNDqA-8" value="[Cuenta inválida]" style="text;align=center;fontStyle=1;verticalAlign=middle;spacingLeft=3;spacingRight=3;strokeColor=#b85450;rotatable=0;points=[[0,0.5],[1,0.5]];portConstraint=eastwest;html=1;fillColor=#f8cecc;fontSize=10;" vertex="1" parent="1">
          <mxGeometry x="530" y="370" width="170" height="20" as="geometry" />
        </mxCell>
        <mxCell id="bcULmBKe0mkSa0cwNDqA-15" value="&lt;b&gt;alt&lt;/b&gt;" style="shape=umlFrame;whiteSpace=wrap;html=1;pointerEvents=0;width=80;height=15;fillColor=#f8cecc;strokeColor=#b85450;" vertex="1" parent="1">
          <mxGeometry x="85" y="629" width="275" height="131" as="geometry" />
        </mxCell>
        <mxCell id="bcULmBKe0mkSa0cwNDqA-19" value="Confirmar actualización (estado)" style="html=1;verticalAlign=bottom;endArrow=block;curved=0;rounded=0;" edge="1" parent="1" target="bcULmBKe0mkSa0cwNDqA-13">
          <mxGeometry width="80" relative="1" as="geometry">
            <mxPoint x="624.9999999999998" y="605" as="sourcePoint" />
            <mxPoint x="319.9999999999998" y="605" as="targetPoint" />
          </mxGeometry>
        </mxCell>
        <mxCell id="NwqncXRK5OJ0vS-3r9_5-4" value="Error (&quot;Cuenta inválida&quot;)" style="html=1;verticalAlign=bottom;endArrow=block;curved=0;rounded=0;" edge="1" parent="1" source="NwqncXRK5OJ0vS-3r9_5-1" target="NwqncXRK5OJ0vS-3r9_5-2">
          <mxGeometry width="80" relative="1" as="geometry">
            <mxPoint x="280" y="413.65999999999997" as="sourcePoint" />
            <mxPoint x="130" y="420" as="targetPoint" />
          </mxGeometry>
        </mxCell>
        <mxCell id="NwqncXRK5OJ0vS-3r9_5-5" value="" style="endArrow=none;html=1;rounded=0;exitX=0;exitY=0.672;exitDx=0;exitDy=0;exitPerimeter=0;entryX=1;entryY=-0.14;entryDx=0;entryDy=0;entryPerimeter=0;" edge="1" parent="1" target="NwqncXRK5OJ0vS-3r9_5-6">
          <mxGeometry width="50" height="50" relative="1" as="geometry">
            <mxPoint x="80" y="436.20000000000005" as="sourcePoint" />
            <mxPoint x="702.4799999999998" y="437.20000000000005" as="targetPoint" />
          </mxGeometry>
        </mxCell>
        <mxCell id="NwqncXRK5OJ0vS-3r9_5-6" value="[Cuenta válida]" style="text;align=center;fontStyle=1;verticalAlign=middle;spacingLeft=3;spacingRight=3;strokeColor=#b85450;rotatable=0;points=[[0,0.5],[1,0.5]];portConstraint=eastwest;html=1;fillColor=#f8cecc;fontSize=10;" vertex="1" parent="1">
          <mxGeometry x="530" y="440" width="170" height="20" as="geometry" />
        </mxCell>
        <mxCell id="NwqncXRK5OJ0vS-3r9_5-8" value="Actualizar saldo (monto)" style="html=1;verticalAlign=bottom;endArrow=block;curved=0;rounded=0;" edge="1" parent="1">
          <mxGeometry width="80" relative="1" as="geometry">
            <mxPoint x="295" y="490" as="sourcePoint" />
            <mxPoint x="624.9999999999998" y="490" as="targetPoint" />
          </mxGeometry>
        </mxCell>
        <mxCell id="NwqncXRK5OJ0vS-3r9_5-10" value="[Actualización fallida]" style="text;align=center;fontStyle=1;verticalAlign=middle;spacingLeft=3;spacingRight=3;rotatable=0;points=[[0,0.5],[1,0.5]];portConstraint=eastwest;html=1;fontSize=10;" vertex="1" parent="1">
          <mxGeometry x="160" y="629" width="120" height="20" as="geometry" />
        </mxCell>
        <mxCell id="NwqncXRK5OJ0vS-3r9_5-11" value="" style="endArrow=none;html=1;rounded=0;entryX=0.997;entryY=0.627;entryDx=0;entryDy=0;entryPerimeter=0;exitX=-0.001;exitY=0.627;exitDx=0;exitDy=0;exitPerimeter=0;" edge="1" parent="1">
          <mxGeometry width="50" height="50" relative="1" as="geometry">
            <mxPoint x="84.72500000000002" y="700.137" as="sourcePoint" />
            <mxPoint x="359.17499999999995" y="700.137" as="targetPoint" />
          </mxGeometry>
        </mxCell>
        <mxCell id="NwqncXRK5OJ0vS-3r9_5-12" value="[Actualización exitosa]" style="text;align=center;fontStyle=1;verticalAlign=middle;spacingLeft=3;spacingRight=3;rotatable=0;points=[[0,0.5],[1,0.5]];portConstraint=eastwest;html=1;fontSize=10;" vertex="1" parent="1">
          <mxGeometry x="160" y="700" width="120" height="20" as="geometry" />
        </mxCell>
        <mxCell id="NwqncXRK5OJ0vS-3r9_5-13" value="" style="html=1;points=[[0,0,0,0,5],[0,1,0,0,-5],[1,0,0,0,5],[1,1,0,0,-5]];perimeter=orthogonalPerimeter;outlineConnect=0;targetShapes=umlLifeline;portConstraint=eastwest;newEdgeStyle={&quot;curved&quot;:0,&quot;rounded&quot;:0};fillColor=#ffcc99;strokeColor=#36393d;" vertex="1" parent="1">
          <mxGeometry x="105" y="720" width="10" height="30" as="geometry" />
        </mxCell>
        <mxCell id="NwqncXRK5OJ0vS-3r9_5-14" value="Confirmación depósito (estado)" style="html=1;verticalAlign=bottom;endArrow=block;curved=0;rounded=0;" edge="1" parent="1">
          <mxGeometry width="80" relative="1" as="geometry">
            <mxPoint x="285" y="741.9999999999998" as="sourcePoint" />
            <mxPoint x="115" y="741.9999999999998" as="targetPoint" />
          </mxGeometry>
        </mxCell>
      </root>
    </mxGraphModel>
  </diagram>
</mxfile>
